HIERARCHY
ROOT Hips
{
	OFFSET	0.00	0.00	0.00
	CHANNELS 6 Xposition Yposition Zposition Zrotation Xrotation Yrotation
	JOINT Spine
	{
		OFFSET	 0.00	0.01	 0.00
		CHANNELS 3 Zrotation Xrotation Yrotation
		JOINT Spine1
		{
			OFFSET	 0.00	 2.45913012437421	 0.00
			CHANNELS 3 Zrotation Xrotation Yrotation
            JOINT Neck
            {
                OFFSET	 0.00	 2.48462964506057	 0.00
                CHANNELS 3 Zrotation Xrotation Yrotation
                JOINT Head
                {
                    OFFSET	 0.00	 0.927524780924562	 0.00
                    CHANNELS 3 Zrotation Xrotation Yrotation
                    End Site 
                    {
                        OFFSET	 0.00	 1.14999962169752	 0.00
                    }
                }
            }
			JOINT LeftShoulder
			{
				OFFSET	 0.00	 2.48462964506057	 0.00
				CHANNELS 3 Zrotation Xrotation Yrotation
				JOINT LeftUpArm
				{
					OFFSET	 0.00	 1.24881979654096	 0.00
					CHANNELS 3 Zrotation Xrotation Yrotation
					JOINT LeftForeArm
					{
						OFFSET	 0.00	2.59758046908119	 0.00
						CHANNELS 3 Zrotation Xrotation Yrotation
						JOINT LeftHand
						{
							OFFSET	 0.00	2.45542024364365	 0.00
							CHANNELS 3 Zrotation Xrotation Yrotation
							JOINT LeftHandThumb 
							{
								OFFSET	 0.00	0.00	 0.00
								CHANNELS 3 Zrotation Xrotation Yrotation
								End Site
								{
									OFFSET	 0.00	0.00	1.00000003353624
								}
							}
							JOINT L_Wrist_End 
							{
								OFFSET	 0.00	0.99999967115358	 0.00
								CHANNELS 3 Zrotation Xrotation Yrotation
								End Site 
								{
									OFFSET	 0.00	 0.00	 0.00
								}
							}
						}
					}
				}
			}
			JOINT RightShoulder
			{
				OFFSET	 0.00	 2.48462964506057	 0.00
				CHANNELS 3 Zrotation Xrotation Yrotation
				JOINT RightUpArm
				{
					OFFSET	 0.00	 1.24881979654096	 0.00
					CHANNELS 3 Zrotation Xrotation Yrotation
					JOINT RightForeArm
					{
						OFFSET	 0.00	2.59758046908119	 0.00
						CHANNELS 3 Zrotation Xrotation Yrotation
						JOINT RightHand
						{
							OFFSET	 0.00	2.45542024364365	 0.00
							CHANNELS 3 Zrotation Xrotation Yrotation
							JOINT RightHandThumb 
							{
								OFFSET	 0.00	0.00	 0.00
								CHANNELS 3 Zrotation Xrotation Yrotation
								End Site
								{
									OFFSET	 0.00	0.00	1.00000003353624
								}
							}
							JOINT R_Wrist_End 
							{
								OFFSET	 0.00	0.99999967115358	 0.00
								CHANNELS 3 Zrotation Xrotation Yrotation
								End Site 
								{
									OFFSET	 0.00	 0.00	 0.00
								}
							}
						}
					}
				}
			}
		}
	}
	JOINT LeftUpLeg
	{
		OFFSET	 1.2719394002717	 0.00	 0.00
		CHANNELS 3 Zrotation Xrotation Yrotation
		JOINT LeftLowLeg
		{
			OFFSET	 0.00	-4.3429100912261	 0.00
			CHANNELS 3 Zrotation Xrotation Yrotation
			JOINT LeftFoot
			{
				OFFSET	 0.00	-4.48767017425826	 0.00
				CHANNELS 3 Zrotation Xrotation Yrotation
				JOINT LeftToeBase
                {
                    OFFSET	 0.00	0.00	 1.51507020887566
                    CHANNELS 3 Zrotation Xrotation Yrotation
                    End Site 
                    {
                        OFFSET	 0.00	0.00	 0.75000010571191
                    }
                }
			}
		}
	}
	JOINT RightUpLeg
	{
		OFFSET	 -1.2719393604653	 0.00	 0.00
		CHANNELS 3 Zrotation Xrotation Yrotation
		JOINT RightLowLeg
		{
			OFFSET	 0.00	-4.3429100912261	 0.00
			CHANNELS 3 Zrotation Xrotation Yrotation
			JOINT RightFoot
			{
				OFFSET	 0.00	-4.48767017425826	 0.00
				CHANNELS 3 Zrotation Xrotation Yrotation
				JOINT RightToeBase
                {
                    OFFSET	 0.00	0.00	 1.51507020887566
                    CHANNELS 3 Zrotation Xrotation Yrotation
                    End Site 
                    {
                        OFFSET	 0.00	0.00	 0.749999965609858
                    }
                }   
			}
		}
	}
}
MOTION 
Frames:	6 
Frame Time: 0.02 
  -1.5415499877929688 -0.8620339965820313 9.26322021484375 -8.52313 86.9537 371.542 1.99679 -10.8192 -5.54668 -6.23656 26.7648 7.98796 -43.4787 52.3789 48.7105 2.47249 -70.432 391.501 -108.6522 -4.67211 3.23764 -35.2547 -22.1052 -333.367 0.0 86.3937 0.0 4.3632 -13.9366 13.9412 0.0 0.0 0.0 0.0 0.0 0.0 113.5598 -6.78188 -0.05689 35.4316 -10.8858 -46.0494 0.0 65.5327 0.0 -19.4798 5.38515 31.312 0.0 0.0 0.0 0.0 0.0 0.0 -8.5931 -3.99597 -10.5332 0.0 20.5995 0.0 0.151439 -5.3281994 12.2499 0.0 -10.89073 0.0 14.8328 -20.0144 369.701 0.0 9.97069 0.0 10.8318 9.647221 -19.3492 0.0 -27.0833 0.0 
  -1.543260040283203 -0.8535160064697266 9.276510009765625 -17.1467 86.9201 380.482 2.02491 -10.5813 -5.53511 -6.153 27.1197 8.12088 -43.0273 52.6766 48.1735 2.8023 -70.7797 391.712 -108.7702 -4.31434 3.478 -35.3045 -21.89 -332.254 0.0 84.7121 0.0 4.60791 -11.2505 9.94707 0.0 0.0 0.0 0.0 0.0 0.0 113.7009 -6.73721 -0.0132422 35.1631 -10.5109 -45.4101 0.0 65.4937 0.0 -19.6422 5.74522 31.1001 0.0 0.0 0.0 0.0 0.0 0.0 -8.29438 -3.97267 -11.9539 0.0 20.349 0.0 -0.244163 -5.240299 13.1004 0.0 -10.990931 0.0 13.7486 -19.432 371.671 0.0 6.24643 0.0 9.99192 9.45988 -19.838 0.0 -26.4492 0.0 
  -1.5467100524902344 -0.8432990264892578 9.289439697265625 -27.7728 86.9333 391.516 2.08661 -10.4456 -5.55345 -6.06081 27.3487 8.16888 -42.5358 52.9869 47.5775 3.09972 -70.9544 391.914 -108.9589 -3.94588 3.76439 -35.293 -21.6134 -330.82 0.0 83.2086 0.0 6.71487 -7.92965 6.3936 0.0 0.0 0.0 0.0 0.0 0.0 113.770996 -6.76134 0.16602 34.9439 -10.0653 -45.4242 0.0 65.2784 0.0 -21.4335 6.84778 28.5131 0.0 0.0 0.0 0.0 0.0 0.0 -7.73468 -4.30171 -12.1404 0.0 20.3448 0.0 -0.488086 -5.2231007 12.7271 0.0 -11.08003 0.0 12.6472 -19.2165 372.784 0.0 3.3443 0.0 9.92021 9.30742 -19.6352 0.0 -25.934101 0.0 
  -1.5532200622558594 -0.8369010162353515 9.303189697265625 -39.816 86.9566 403.761 2.12452 -10.4986 -5.47108 -6.02694 27.529 8.33675 -41.8574 53.3128 46.7836 3.35996 -70.8409 392.219 -109.1669 -3.6745 4.15342 -35.3673 -21.0984 -329.323 0.0 81.7578 0.0 10.421 -4.9308 2.0633 0.0 0.0 0.0 0.0 0.0 0.0 113.9441 -6.78271 0.239196 34.5207 -9.53894 -45.5748 0.0 65.2197 0.0 -22.4183 7.81065 26.0257 0.0 0.0 0.0 0.0 0.0 0.0 -7.02922 -4.74664 -11.4745 0.0 20.283 0.0 -0.563798 -5.2964993 11.7763 0.0 -10.89651 0.0 11.6486 -19.3469 373.337 0.0 1.50012 0.0 12.5097 8.58852 -18.6207 0.0 -25.769901 0.0 
  -1.5606700134277345 -0.8317819976806641 9.320399780273437 -51.0445 86.8633 415.115 2.08148 -10.6211 -5.44318 -5.93666 27.8174 8.54519 -41.3485 53.5848 46.1093 3.25424 -70.697 392.186 -109.4876 -3.57143 4.20067 -35.5328 -20.4286 -328.109 0.0 80.1588 0.0 13.0768 -2.40921 -3.21172 0.0 0.0 0.0 0.0 0.0 0.0 114.0691 -6.65937 0.151953 34.0823 -8.97329 -46.0448 0.0 65.183 0.0 -24.0538 8.24546 25.8489 0.0 0.0 0.0 0.0 0.0 0.0 -6.33543 -5.00719 -11.0565 0.0 19.9119 0.0 -1.58942 -5.3477993 10.6032 0.0 -10.93618 0.0 10.7506 -19.6768 372.752 0.0 0.733719 0.0 15.3253 8.302401 -16.8273 0.0 -25.4985 0.0 
  -1.5706300354003906 -0.8262370300292968 9.338140258789062 -64.0277 86.6241 428.085 2.20947 -10.8121 -5.25987 -5.97593 27.9312 8.74581 -40.9827 53.9193 45.6044 3.39169 -70.6438 392.387 -109.7103 -3.56859 4.19963 -35.8526 -19.6018 -327.128 0.0 78.4865 0.0 16.4474 0.057989 -6.78225 0.0 0.0 0.0 0.0 0.0 0.0 114.2517 -6.44248 -0.0134396 33.5845 -8.59872 -46.9162 0.0 65.1494 0.0 -26.7417 8.43033 25.0885 0.0 0.0 0.0 0.0 0.0 0.0 -5.37712 -5.59517 -9.30415 0.0 19.8473 0.0 -1.96877 -5.357401 8.62878 0.0 -10.780291 0.0 10.0547 -20.3682 371.484 0.0 1.05811 0.0 16.6133 9.0618 -14.3128 0.0 -25.4482 0.0 
